<svg width="212" height="60" viewBox="0 0 212 60" fill="none" xmlns="http://www.w3.org/2000/svg">
<g filter="url(#filter0_d_107_6)">
<path d="M59.784 44.1269C49.9721 51.0053 41.7584 51.4306 38.878 50.7834C40.439 30.1481 54.9524 14.8195 62.0139 9.7346C51.7561 12.841 43.6167 26.7458 40.8292 33.3099C39.7142 25.1002 34.9755 18.7949 32.7456 16.6685C35.3231 10.7698 38.6156 9.85122 38.8766 9.74629C38.8775 9.73865 38.878 9.7346 38.878 9.7346C38.899 9.7346 38.8978 9.73774 38.8766 9.74629C38.8653 9.842 38.7919 10.5016 38.878 10.844C40.216 7.51574 43.7096 5.75915 45.2892 5.29689L45.5679 5.8516C48.4669 2.7452 52.5365 1.9686 54.209 1.9686L53.9303 2.80067C57.2752 0.803702 62.0139 0.30446 63.9651 0.30446L63.4076 1.13653C67.6446 0.0271015 71.4913 -0.0653509 72.885 0.0271015C72.885 2.24596 71.9559 5.75915 71.4913 7.23838H73.4425C73.6655 9.01347 72.7921 13.3402 72.3275 15.2817C72.6063 15.2817 72.6063 15.0044 74 15.0044C73.331 18.3327 71.3055 21.7534 70.3763 23.0477C70.5993 22.8258 71.5842 22.9553 72.0488 23.0477C71.8258 26.1541 69.5401 29.1496 68.4251 30.259H69.5401C67.9791 33.8092 65.3589 35.9911 64.2439 36.6382H65.0801C63.1009 40.577 60.0552 42.8614 58.7238 43.5444C58.8531 43.5946 59.1569 43.7525 59.784 44.1269Z" fill="#60C4A3"/>
<path d="M35.8118 23.8798C40.4947 38.7461 36.4622 47.0853 33.8606 49.3967C31.4076 33.6428 19.4587 22.493 13.7908 18.8874C28.7316 33.7537 31.166 46.1608 30.5156 50.5061C18.4738 50.9498 12.49 43.4797 11.0034 39.6892L11.2821 39.1344H10.4459C7.76992 37.1375 6.9151 35.159 6.82219 34.4194L7.37968 33.8647C5.5957 31.6458 5.14971 29.0571 5.14971 28.0402H5.7072C4.59222 26.487 4.12764 23.51 4.03472 22.2157H4.87096C3.97897 19.7749 3.9418 17.3157 4.03472 16.3912H4.87096C4.20197 13.9504 4.40638 11.3063 4.59221 10.2893C7.93716 10.2893 11.1892 11.2138 12.3971 11.6761V10.844C16.188 10.844 18.6224 12.3233 19.3658 13.0629V12.2308C21.8187 12.4527 24.8478 14.727 26.0557 15.8365L26.3344 14.727C28.7874 16.0583 30.3298 18.4251 30.7943 19.4421L31.3518 18.8874C33.1358 20.6625 34.3251 23.1402 34.6968 24.1572L35.8118 23.8798Z" fill="#60C4A3"/>
</g>
<path d="M76.4148 51V29.1818H82.1818V33.0312H82.4375C82.892 31.7528 83.6496 30.7443 84.7102 30.0057C85.7708 29.267 87.0398 28.8977 88.517 28.8977C90.0133 28.8977 91.2869 29.2718 92.3381 30.0199C93.3892 30.7585 94.09 31.7623 94.4403 33.0312H94.6676C95.1127 31.7812 95.9176 30.7822 97.0824 30.0341C98.2566 29.2765 99.6439 28.8977 101.244 28.8977C103.28 28.8977 104.933 29.5464 106.202 30.8438C107.48 32.1316 108.119 33.9593 108.119 36.3267V51H102.082V37.5199C102.082 36.3078 101.76 35.3987 101.116 34.7926C100.473 34.1866 99.6676 33.8835 98.7017 33.8835C97.6032 33.8835 96.7462 34.2339 96.1307 34.9347C95.5152 35.6259 95.2074 36.5398 95.2074 37.6761V51H89.3409V37.392C89.3409 36.322 89.0331 35.4697 88.4176 34.8352C87.8116 34.2008 87.0114 33.8835 86.017 33.8835C85.3447 33.8835 84.7386 34.054 84.1989 34.3949C83.6686 34.7263 83.2472 35.1951 82.9347 35.8011C82.6222 36.3977 82.4659 37.0985 82.4659 37.9034V51H76.4148ZM112.899 51V29.1818H118.95V51H112.899ZM115.939 26.3693C115.039 26.3693 114.268 26.071 113.624 25.4744C112.989 24.8684 112.672 24.1439 112.672 23.3011C112.672 22.4678 112.989 21.7528 113.624 21.1562C114.268 20.5502 115.039 20.2472 115.939 20.2472C116.839 20.2472 117.606 20.5502 118.24 21.1562C118.884 21.7528 119.206 22.4678 119.206 23.3011C119.206 24.1439 118.884 24.8684 118.24 25.4744C117.606 26.071 116.839 26.3693 115.939 26.3693ZM129.849 38.3864V51H123.798V29.1818H129.565V33.0312H129.82C130.303 31.7623 131.113 30.7585 132.249 30.0199C133.386 29.2718 134.763 28.8977 136.383 28.8977C137.898 28.8977 139.219 29.2292 140.346 29.892C141.473 30.5549 142.349 31.5019 142.974 32.733C143.599 33.9545 143.911 35.4129 143.911 37.108V51H137.86V38.1875C137.87 36.8523 137.529 35.8106 136.837 35.0625C136.146 34.3049 135.194 33.9261 133.982 33.9261C133.168 33.9261 132.448 34.1013 131.823 34.4517C131.208 34.8021 130.725 35.3134 130.374 35.9858C130.033 36.6487 129.858 37.4489 129.849 38.3864ZM160.286 29.1818V33.7273H147.146V29.1818H160.286ZM150.129 23.9545H156.18V44.2955C156.18 44.8542 156.266 45.2898 156.436 45.6023C156.607 45.9053 156.843 46.1184 157.146 46.2415C157.459 46.3646 157.819 46.4261 158.226 46.4261C158.51 46.4261 158.794 46.4025 159.078 46.3551C159.362 46.2983 159.58 46.2557 159.732 46.2273L160.683 50.7301C160.38 50.8248 159.954 50.9337 159.405 51.0568C158.856 51.1894 158.188 51.2699 157.402 51.2983C155.944 51.3551 154.665 51.161 153.567 50.7159C152.478 50.2708 151.63 49.5795 151.024 48.642C150.418 47.7045 150.12 46.5208 150.129 45.0909V23.9545Z" fill="white"/>
<path d="M176.02 21.9091H182.952V42.0227C182.942 43.9072 182.492 45.5549 181.602 46.9659C180.712 48.3674 179.481 49.4564 177.909 50.233C176.347 51.0095 174.538 51.3977 172.483 51.3977C170.665 51.3977 169.012 51.0805 167.526 50.446C166.048 49.8116 164.869 48.8267 163.989 47.4915C163.117 46.1562 162.687 44.447 162.696 42.3636H169.699C169.727 43.1117 169.869 43.7509 170.125 44.2812C170.39 44.8021 170.755 45.1951 171.219 45.4602C171.683 45.7254 172.237 45.858 172.881 45.858C173.553 45.858 174.121 45.7159 174.585 45.4318C175.049 45.1383 175.4 44.7074 175.636 44.1392C175.883 43.571 176.01 42.8655 176.02 42.0227V21.9091ZM203.09 30.6307C202.996 29.589 202.574 28.7794 201.826 28.2017C201.087 27.6146 200.031 27.321 198.658 27.321C197.749 27.321 196.992 27.4394 196.386 27.6761C195.78 27.9129 195.325 28.2396 195.022 28.6562C194.719 29.0634 194.563 29.5322 194.553 30.0625C194.534 30.4981 194.62 30.8816 194.809 31.2131C195.008 31.5445 195.292 31.8381 195.661 32.0938C196.04 32.34 196.495 32.5578 197.025 32.7472C197.555 32.9366 198.152 33.1023 198.815 33.2443L201.315 33.8125C202.754 34.125 204.023 34.5417 205.121 35.0625C206.229 35.5833 207.157 36.2036 207.906 36.9233C208.663 37.643 209.236 38.4716 209.624 39.4091C210.013 40.3466 210.211 41.3977 210.221 42.5625C210.211 44.3996 209.747 45.9763 208.829 47.2926C207.91 48.6089 206.589 49.6174 204.866 50.3182C203.152 51.0189 201.083 51.3693 198.658 51.3693C196.225 51.3693 194.103 51.0047 192.295 50.2756C190.486 49.5464 189.08 48.4384 188.076 46.9517C187.072 45.465 186.556 43.5852 186.528 41.3125H193.261C193.317 42.25 193.568 43.0312 194.013 43.6562C194.459 44.2812 195.069 44.7547 195.846 45.0767C196.632 45.3987 197.541 45.5597 198.573 45.5597C199.52 45.5597 200.325 45.4318 200.988 45.1761C201.66 44.9205 202.176 44.5653 202.536 44.1108C202.896 43.6562 203.081 43.1354 203.09 42.5483C203.081 41.9991 202.91 41.5303 202.579 41.142C202.247 40.7443 201.736 40.4034 201.045 40.1193C200.363 39.8258 199.492 39.5559 198.431 39.3097L195.391 38.5994C192.872 38.0218 190.888 37.089 189.44 35.8011C187.991 34.5038 187.271 32.7519 187.281 30.5455C187.271 28.7462 187.754 27.1695 188.729 25.8153C189.705 24.4612 191.054 23.4053 192.778 22.6477C194.501 21.8902 196.466 21.5114 198.673 21.5114C200.926 21.5114 202.882 21.8949 204.539 22.6619C206.206 23.4195 207.498 24.4848 208.417 25.858C209.335 27.2311 209.804 28.822 209.823 30.6307H203.09Z" fill="#60C4A3"/>
<defs>
<filter id="filter0_d_107_6" x="0" y="0" width="78" height="59" filterUnits="userSpaceOnUse" color-interpolation-filters="sRGB">
<feFlood flood-opacity="0" result="BackgroundImageFix"/>
<feColorMatrix in="SourceAlpha" type="matrix" values="0 0 0 0 0 0 0 0 0 0 0 0 0 0 0 0 0 0 127 0" result="hardAlpha"/>
<feOffset dy="4"/>
<feGaussianBlur stdDeviation="2"/>
<feComposite in2="hardAlpha" operator="out"/>
<feColorMatrix type="matrix" values="0 0 0 0 0 0 0 0 0 0 0 0 0 0 0 0 0 0 0.25 0"/>
<feBlend mode="normal" in2="BackgroundImageFix" result="effect1_dropShadow_107_6"/>
<feBlend mode="normal" in="SourceGraphic" in2="effect1_dropShadow_107_6" result="shape"/>
</filter>
</defs>
</svg>
